# xmcd CD database file
#
# Track frame offsets:
#	150
#	20385
#	36252
#	52023
#	65922
#	87261
#	102576
#	116211
#	133758
#	148329
#	165180
#	185031
#	200130
#	213861
#	234144
#
# Disc length: 3329 seconds
#
# Revision: 0
# Processed by: cddbd v1.5.1PL2 Copyright (c) Steve Scherf et al.
# Submitted via: CDex 1.51
#
DISCID=e40cff0f
DTITLE=Col Millington - Pushin' 60
DYEAR=2006
DGENRE=Country
TTITLE0=Pushin' 60
TTITLE1=Baby You're Drvin' Me Crazy
TTITLE2=The Animal Dance
TTITLE3=Bad Luck
TTITLE4=When We Make Love
TTITLE5=I Was Your Man
TTITLE6=Heartbreaker
TTITLE7=My Old Tin Shack
TTITLE8=You Did It To Me Baby
TTITLE9=Feelin'
TTITLE10=My Tex Mex Girl
TTITLE11=I Want Somebody To Love
TTITLE12=Things Ain't What They Seem
TTITLE13=Choked Up With Emotion
TTITLE14=They Call Him Wombat
EXTD=YEAR: 2006
EXTT0=
EXTT1=
EXTT2=
EXTT3=
EXTT4=
EXTT5=
EXTT6=
EXTT7=
EXTT8=
EXTT9=
EXTT10=
EXTT11=
EXTT12=
EXTT13=
EXTT14=
PLAYORDER=
